<?xml version="1.0" encoding="UTF-8"?>
<svg width="25px" height="25px" viewBox="0 0 25 25" version="1.1" xmlns="http://www.w3.org/2000/svg" xmlns:xlink="http://www.w3.org/1999/xlink">
    <title>link_outline</title>
    <g id="link_outline" stroke="none" fill="none" fill-rule="nonzero">
        <path d="M10,6 C10.6903559,6 11.25,6.5372583 11.25,7.2 C11.25,7.8627417 10.6903559,8.4 10,8.4 L6.25,8.4 C4.17902894,8.4 2.5,10.0118956 2.5,12 C2.5,13.9881044 4.17902894,15.6 6.25,15.6 L10,15.6 C10.6903559,15.6 11.25,16.1372583 11.25,16.8 C11.25,17.4627417 10.6903559,18 10,18 L6.25,18 C2.7983074,18 0,15.3135785 0,12 C0,8.68642149 2.7983074,6 6.25,6 L10,6 Z M18.75,6 C22.2016059,6 25,8.6864583 25,12 C25,15.3135417 22.2016059,18 18.75,18 L15,18 C14.3096441,18 13.75,17.4627417 13.75,16.8 C13.75,16.1372583 14.3096441,15.6 15,15.6 L18.75,15.6 C20.8208941,15.6 22.5,13.9880583 22.5,12 C22.5,10.0119417 20.8208941,8.4 18.75,8.4 L15,8.4 C14.3096441,8.4 13.75,7.8627417 13.75,7.2 C13.75,6.5372583 14.3096441,6 15,6 L18.75,6 Z M17.5,10.8 C18.1903559,10.8 18.75,11.3372583 18.75,12 C18.75,12.6627417 18.1903559,13.2 17.5,13.2 L7.5,13.2 C6.80964406,13.2 6.25,12.6627417 6.25,12 C6.25,11.3372583 6.80964406,10.8 7.5,10.8 L17.5,10.8 Z" id="Combined-Shape" fill="#33363F" transform="translate(12.5, 12) rotate(-45) translate(-12.5, -12)"></path>
    </g>
</svg>