<?xml version="1.0" encoding="UTF-8"?>
<svg width="24px" height="25px" viewBox="0 0 24 25" version="1.1" xmlns="http://www.w3.org/2000/svg" xmlns:xlink="http://www.w3.org/1999/xlink">
    <title>replace_outline</title>
    <g id="replace_outline" stroke="none" fill="none" transform="translate(0, 0.5)" fill-rule="nonzero">
        <path d="M14.6415528,0 L14.7765325,0.00673315819 C15.4422735,0.0735174324 15.9623292,0.628869339 15.9623292,1.30335614 C15.9623292,2.02280873 15.3706213,2.60671228 14.6415528,2.60671228 L12,2.60671228 L11.7671639,2.61334918 C9.68703584,2.73226338 8.03767084,4.43425034 8.03767084,6.51678071 L8.03635006,19.0133594 L11.0662111,16.0221571 L12.9337889,17.8651026 L6.71689445,24 L0.5,17.8651026 L2.36757781,16.0221571 L5.39479729,19.0107527 L5.39611807,6.51678071 C5.39611807,2.9182144 8.3533364,0 12,0 L14.6415528,0 Z M17.2831055,7.28054741 L23.5,13.4154448 L21.6324222,15.2583904 L18.6025612,12.267188 L18.6038819,19.5503421 C18.6038819,21.6328725 16.9545169,23.3348595 14.8743889,23.4537737 L14.6415528,23.4604106 C13.9124842,23.4604106 13.3207764,22.876507 13.3207764,22.1570544 C13.3207764,21.4889913 13.8309734,20.9378046 14.4875918,20.8624722 L14.6415528,20.8536983 C15.3706213,20.8536983 15.9623292,20.2697947 15.9623292,19.5503421 L15.9610084,12.2697947 L12.9337889,15.2583904 L11.0662111,13.4154448 L17.2831055,7.28054741 Z" id="Combined-Shape" fill="#33363F"></path>
    </g>
</svg>