<?xml version="1.0" encoding="UTF-8"?>
<svg width="25px" height="25px" viewBox="0 0 25 25" version="1.1" xmlns="http://www.w3.org/2000/svg" xmlns:xlink="http://www.w3.org/1999/xlink">
    <title>verify_outline</title>
    <g id="verify_outline" stroke="none" fill="none" fill-rule="evenodd">
        <path d="M20.5870495,3.72625791 L21.3769022,6.35819826 C21.545468,6.9198918 21.838548,7.4349655 22.2336756,7.86393532 L24.085134,9.87396906 C25.4466662,11.352115 25.4466662,13.647885 24.085134,15.1260309 L22.2336756,17.1360647 C21.838548,17.5650345 21.545468,18.0801082 21.3769022,18.6418017 L20.5870495,21.2737421 C20.0062048,23.209228 18.0467445,24.357113 16.1043676,23.899773 L13.4630565,23.2778664 C12.9933121,23.1672633 12.5079657,23.1488295 12.0330206,23.2225649 L11.7495097,23.2778664 L9.10819871,23.899773 C7.16582174,24.357113 5.20636148,23.209228 4.62551676,21.2737421 L3.83566411,18.6418017 C3.66709831,18.0801082 3.37401829,17.5650345 2.97889071,17.1360647 L1.12743232,15.1260309 C-0.234099918,13.647885 -0.234099918,11.352115 1.12743232,9.87396906 L2.97889071,7.86393532 C3.37401829,7.4349655 3.66709831,6.9198918 3.83566411,6.35819826 L4.62551676,3.72625791 C5.20636148,1.79077199 7.16582174,0.642887018 9.10819871,1.10022697 L11.7495097,1.72213358 C12.3132031,1.8548573 12.8993632,1.8548573 13.4630565,1.72213358 L16.1043676,1.10022697 C18.0467445,0.642887018 20.0062048,1.79077199 20.5870495,3.72625791 Z M17.5188009,9.44771931 C16.9980875,8.92700587 16.153901,8.9270483 15.6332017,9.44774759 L11.3905398,13.6904095 L9.03347004,11.3333397 C8.51282731,10.812697 7.66861253,10.8126263 7.14789909,11.3333397 C6.62718566,11.8540532 6.62725637,12.698268 7.14789909,13.2189107 L10.2120756,16.2830872 C10.8628967,16.9339083 11.9181829,16.9339083 12.5690039,16.2830872 L17.5187726,11.3333185 C18.0394719,10.8126192 18.0395143,9.96843274 17.5188009,9.44771931 Z" id="Combined-Shape" fill="#0081FF"></path>
    </g>
</svg>